<?xml version="1.0" encoding="UTF-8" standalone="no"?>
<!-- Created with Inkscape (http://www.inkscape.org/) -->

<svg
   width="84.818619mm"
   height="84.539566mm"
   viewBox="0 0 84.818616 84.539564"
   version="1.1"
   id="svg523"
   inkscape:version="1.1.2 (b8e25be833, 2022-02-05)"
   sodipodi:docname="logo_collapsed.svg"
   xmlns:inkscape="http://www.inkscape.org/namespaces/inkscape"
   xmlns:sodipodi="http://sodipodi.sourceforge.net/DTD/sodipodi-0.dtd"
   xmlns="http://www.w3.org/2000/svg"
   xmlns:svg="http://www.w3.org/2000/svg">
  <sodipodi:namedview
     id="namedview525"
     pagecolor="#505050"
     bordercolor="#eeeeee"
     borderopacity="1"
     inkscape:pageshadow="0"
     inkscape:pageopacity="0"
     inkscape:pagecheckerboard="0"
     inkscape:document-units="mm"
     showgrid="false"
     inkscape:zoom="0.64052329"
     inkscape:cx="434.02013"
     inkscape:cy="201.39783"
     inkscape:window-width="1920"
     inkscape:window-height="1177"
     inkscape:window-x="-8"
     inkscape:window-y="-8"
     inkscape:window-maximized="1"
     inkscape:current-layer="layer1" />
  <defs
     id="defs520" />
  <g
     inkscape:label="Слой 1"
     inkscape:groupmode="layer"
     id="layer1"
     transform="translate(-58.685806,-82.361281)">
    <path
       style="fill:#ffffff;stroke-width:0.0846667"
       d="m 98.591714,166.79336 c -0.512233,-0.0664 -1.236133,-0.16045 -1.608667,-0.20903 -6.457522,-0.84212 -12.173902,-2.79891 -17.399001,-5.9559 -1.811098,-1.09426 -3.224942,-2.10068 -5.238757,-3.72912 -1.380023,-1.11593 -3.800476,-3.52491 -5.231797,-5.207 -1.265738,-1.48749 -3.700271,-4.99206 -3.563127,-5.12921 0.01578,-0.0158 0.454066,0.56986 0.97397,1.30143 4.283269,6.02705 9.422041,10.48433 15.642045,13.56763 3.916636,1.94151 7.366619,3.06206 11.599334,3.76747 2.642255,0.44035 7.004376,0.48961 9.990666,0.11282 3.8642,-0.48756 6.33438,-1.06763 10.58333,-2.48527 0.88477,-0.2952 1.89442,-0.61935 2.24367,-0.72031 3.62893,-1.04916 4.61005,-1.5491 7.2288,-3.68356 0.62845,-0.51223 1.68794,-1.27096 2.35442,-1.68607 2.15103,-1.33973 2.63716,-1.68718 3.43697,-2.45647 1.2657,-1.21742 1.85086,-2.08309 3.58111,-5.29779 0.47764,-0.88744 1.59775,-2.68712 2.79287,-4.48734 2.31984,-3.49439 2.73789,-4.17472 3.28985,-5.35398 1.07069,-2.28749 1.6841,-4.52254 2.09745,-7.64235 0.125,-0.94345 0.14408,-1.79604 0.13361,-5.969 -0.007,-2.90547 -0.0491,-5.1585 -0.10362,-5.588 -0.0503,-0.39582 -0.11196,-1.31022 -0.1371,-2.032 -0.0567,-1.62775 -0.32115,-3.49256 -0.7654,-5.3968 -0.2199,-0.94262 -0.24061,-1.12253 -0.12919,-1.12253 0.10912,0 0.44535,0.80229 1.01734,2.4275 1.18739,3.3737 1.67412,5.30754 2.00069,7.94893 0.14429,1.16709 0.16675,3.62315 0.0415,4.53994 -0.0466,0.34098 -0.12082,0.97575 -0.16497,1.4106 -0.24188,2.38232 -1.12263,5.92177 -3.40592,13.68736 -0.84834,2.88525 -1.74893,4.96131 -2.90003,6.68523 -1.09411,1.63858 -1.87202,2.4387 -4.28172,4.40402 -1.64345,1.34036 -2.85675,2.47841 -3.86461,3.6249 -2.1745,2.47363 -2.8371,3.01217 -5.11006,4.15331 -1.92158,0.96473 -2.32204,1.18635 -3.556,1.96794 -0.53552,0.3392 -1.29752,0.82162 -1.69334,1.07206 -2.68227,1.69706 -6.30247,2.79309 -11.43,3.46048 -1.22254,0.15912 -7.240893,0.17349 -8.424326,0.0201 z m 1.547696,-8.45924 c -0.0258,-0.0258 -0.670294,-0.0806 -1.432276,-0.12173 -1.90844,-0.10314 -3.222546,-0.30216 -5.237754,-0.79326 -1.155538,-0.2816 -3.849875,-1.12129 -4.200496,-1.30909 -0.08791,-0.0471 -0.284884,-0.13201 -0.437718,-0.18873 -0.152836,-0.0567 -0.262911,-0.1181 -0.244612,-0.1364 0.0183,-0.0183 0.371944,0.0789 0.785881,0.21587 0.904242,0.29933 2.301551,0.71654 2.826945,0.84409 1.237508,0.30041 2.278551,0.51564 2.963334,0.61266 0.302683,0.0429 0.969433,0.14066 1.481667,0.21728 1.422728,0.21282 5.879899,0.25552 7.492999,0.0718 3.25699,-0.37096 5.95296,-1.04823 8.84766,-2.2227 4.85348,-1.96918 9.82573,-5.9544 13.54844,-10.85893 0.22975,-0.30269 0.89724,-1.12252 1.48331,-1.82186 1.78051,-2.12462 2.28146,-2.97789 2.8821,-4.90914 0.44495,-1.43063 0.58853,-1.80274 1.22517,-3.175 0.29165,-0.62865 0.64575,-1.47273 0.78689,-1.87573 0.33863,-0.96691 0.5626,-2.59143 0.48263,-3.50061 -0.15951,-1.8134 -0.21949,-3.29854 -0.29064,-7.19666 -0.0683,-3.74477 -0.0974,-4.33218 -0.2516,-5.08975 -0.75238,-3.69598 -2.16394,-6.47854 -6.00086,-11.82932 -2.19635,-3.0629 -3.42286,-4.56078 -4.96628,-6.065047 -0.26115,-0.254526 -0.47482,-0.491708 -0.47482,-0.527071 0,-0.367952 3.25301,2.106428 5.02879,3.825108 2.9215,2.82757 4.62297,5.89845 6.42738,11.60041 0.25789,0.81492 0.67959,2.14842 0.93713,2.96333 0.68886,2.17978 1.02369,3.38089 1.28632,4.61434 0.21429,1.00638 0.23447,1.2566 0.23562,2.921 10e-4,2.06281 -0.0122,2.1413 -0.83854,4.826 -0.63809,2.07312 -1.13409,4.29368 -1.13741,5.09213 -0.002,0.52135 -0.47544,2.21919 -0.82628,2.9643 -0.18298,0.38861 -0.49694,0.97327 -0.69769,1.29923 -0.51824,0.84149 -1.23826,2.25896 -1.86062,3.66288 -0.6507,1.46787 -1.12179,2.29028 -1.85446,3.23746 -1.98489,2.56599 -4.27486,4.6763 -7.12358,6.5647 -2.29281,1.5199 -4.30286,2.57412 -6.7772,3.5545 -3.81207,1.5104 -7.09603,2.25206 -11.04513,2.49445 -1.56252,0.0959 -2.94977,0.11402 -3.0243,0.0395 z m -12.469697,-2.91648 c -0.06622,-0.10715 0.04586,-0.10715 0.211667,0 0.109448,0.0707 0.107213,0.0823 -0.01617,0.0834 -0.07874,7.2e-4 -0.166717,-0.0368 -0.195497,-0.0834 z m 12.234334,-3.60258 c -0.442383,-0.0595 -1.107494,-0.11152 -1.478025,-0.1155 -0.741842,-0.008 -2.968461,-0.21262 -3.898308,-0.35828 -3.072418,-0.48128 -5.151917,-1.60675 -9.706765,-5.25351 -1.924089,-1.54049 -3.478832,-2.98702 -4.805231,-4.47079 -1.99808,-2.23514 -3.434601,-4.89576 -3.94901,-7.31405 -0.07046,-0.33126 -0.202902,-1.00234 -0.294307,-1.49129 -0.0914,-0.48895 -0.207231,-1.08845 -0.257392,-1.33222 -0.110223,-0.53566 -0.0258,-0.74528 0.158838,-0.39437 0.07088,0.13471 0.296404,0.66403 0.501171,1.17626 0.560796,1.40286 3.009953,5.95043 4.224374,7.84378 1.780656,2.77614 3.333459,4.46896 5.565775,6.06765 1.210223,0.86671 3.117935,1.76397 5.55688,2.6136 0.20955,0.073 1.0668,0.39852 1.905,0.72337 2.0439,0.79213 3.465125,1.28663 4.163895,1.44878 0.795584,0.18462 2.465728,0.39494 3.146078,0.39619 0.66407,0.001 2.21816,-0.19213 3.52736,-0.43885 3.59293,-0.67709 10.2843,-3.24628 12.90651,-4.95552 4.127,-2.69012 7.28335,-7.30816 9.1894,-13.445 0.91132,-2.93415 1.42941,-5.07126 1.61636,-6.6675 0.0259,-0.22119 0.0779,-0.40217 0.11551,-0.40217 0.23747,0 0.24658,3.63985 0.0128,5.12234 -0.65958,4.1829 -2.6368,7.99848 -6.27905,12.11709 -1.60698,1.81717 -4.77982,4.63751 -6.72422,5.97718 -2.6017,1.79253 -4.89556,2.65852 -8.35546,3.15439 -1.1397,0.16334 -5.62461,0.1623 -6.842203,-0.002 z m -0.753829,-4.86642 c -2.853402,-0.41353 -4.59898,-1.11968 -9.575505,-3.8736 -2.266697,-1.25436 -2.740577,-1.57972 -3.683696,-2.52923 -0.944881,-0.95129 -1.414616,-1.59117 -2.290251,-3.11983 -3.323202,-5.80157 -4.57855,-10.13555 -3.93749,-13.59384 0.155328,-0.83794 0.23572,-1.18299 0.566674,-2.43224 0.250951,-0.94726 0.324125,-0.62839 0.376263,1.63964 0.09215,4.00846 0.461827,7.03739 1.110009,9.09477 0.521076,1.65393 1.239444,3.09749 2.124752,4.2697 0.726944,0.96252 5.508803,5.76294 6.313241,6.33774 1.443085,1.03115 3.132742,1.72725 5.262499,2.16805 0.743373,0.15386 1.131009,0.21247 2.878667,0.43528 1.169585,0.1491 4.344879,0.26748 5.884329,0.21937 2.31164,-0.0722 4.06421,-0.53217 6.24082,-1.63777 2.84519,-1.44519 5.04722,-3.35179 8.13515,-7.04369 0.40955,-0.48965 0.88241,-1.1012 1.05079,-1.35898 0.56332,-0.86241 0.88591,-1.27417 0.96161,-1.22738 0.15851,0.098 -0.72657,2.09091 -1.48376,3.34101 -2.49447,4.11831 -7.49313,7.20927 -14.31194,8.84992 -2.49452,0.60019 -3.8789,0.71373 -5.622162,0.46108 z m -23.771756,-0.5801 c -0.85039,-0.85039 -2.468341,-2.71882 -3.198117,-3.69323 -2.420691,-3.23215 -3.994098,-7.55682 -4.635931,-12.74233 -0.15081,-1.21843 -0.151712,-7.74512 -0.0012,-8.97467 0.05984,-0.48895 0.166081,-1.3843 0.236096,-1.98967 0.07001,-0.60536 0.163877,-1.31021 0.208582,-1.56633 0.04471,-0.25612 0.11733,-0.73237 0.161386,-1.05833 0.382842,-2.83257 1.474118,-5.98254 2.90641,-8.38935 2.010951,-3.3792 4.777762,-6.144 10.518066,-10.51045 0.5588,-0.42506 1.4351,-1.103368 1.947333,-1.507352 2.996293,-2.36309 5.632456,-3.530678 9.059334,-4.012485 1.784511,-0.250896 2.66867,-0.345372 3.232189,-0.345372 0.337877,0 1.044258,-0.06208 1.569734,-0.137956 1.460566,-0.210898 8.067926,-0.213575 9.549076,-0.0039 1.96244,0.277848 3.36157,0.574378 4.61434,0.977959 2.63605,0.849207 3.9457,1.543208 6.38081,3.381288 1.83842,1.387681 2.27428,1.755052 2.18818,1.844339 -0.0369,0.03822 -0.64646,-0.221284 -1.35467,-0.576668 -1.40595,-0.705514 -1.51085,-0.747552 -5.09765,-2.042745 -4.4941,-1.622814 -6.74907,-2.275554 -9.35567,-2.708149 -2.66085,-0.441599 -4.16228,-0.497425 -6.223001,-0.231383 -2.350107,0.303403 -3.625843,0.66161 -6.815667,1.913741 -3.052383,1.19818 -3.6093,1.414132 -4.60574,1.785937 -2.099167,0.78327 -3.530933,1.444055 -4.622927,2.13356 -2.044296,1.290806 -4.568209,3.870656 -6.254089,6.392686 -2.57868,3.85764 -5.726913,10.11674 -6.711219,13.3428 -1.383222,4.53349 -1.334608,9.3428 0.1494,14.78013 0.613053,2.2462 1.554493,4.66052 2.971339,7.62 1.338276,2.79537 1.985225,3.98132 2.979037,5.461 0.989964,1.47396 0.969087,1.43934 0.867954,1.43934 -0.0445,0 -0.343001,-0.2621 -0.66334,-0.58244 z m -9.997468,-0.0314 c -0.121238,-0.15193 -0.394794,-0.71509 -0.298171,-0.61383 0.118094,0.12376 0.467104,0.71967 0.421494,0.71967 -0.02138,0 -0.07688,-0.0476 -0.123323,-0.10584 z m 32.6643,-4.52766 c -0.397969,-0.10639 -1.374899,-0.36164 -2.170955,-0.56723 -0.796056,-0.20559 -1.654833,-0.46255 -1.908393,-0.57104 -3.213913,-1.37501 -6.375391,-4.5941 -8.163234,-8.31199 -1.170852,-2.43483 -1.752952,-4.94965 -1.590472,-6.87124 l 0.07875,-0.93134 0.06503,1.016 c 0.238359,3.7243 1.854364,7.51053 4.297946,10.06991 1.650072,1.72826 2.789792,2.5249 5.916088,4.13523 1.689871,0.87043 2.372873,1.12092 3.250773,1.19218 0.367642,0.0299 1.146905,0.15456 1.731695,0.27715 0.910338,0.19083 1.191688,0.21573 1.956228,0.17316 0.5744,-0.032 1.0742,-0.11301 1.40097,-0.22713 0.60835,-0.21246 2.51225,-0.69386 3.51367,-0.88844 2.12916,-0.41369 3.25883,-0.97468 5.0632,-2.5144 1.10119,-0.93967 3.1888,-3.23355 4.50337,-4.94832 0.34059,-0.44427 0.38329,-0.47505 0.40942,-0.2951 0.0309,0.21272 -0.62095,1.63052 -1.1506,2.50263 -0.81082,1.33509 -2.23249,2.69762 -3.91473,3.75186 -0.85924,0.53848 -1.27712,0.77833 -3.64574,2.09259 -0.81815,0.45396 -1.75084,0.83717 -2.45026,1.00674 -0.45447,0.11018 -1.06584,0.13071 -3.50975,0.11782 -2.787353,-0.0147 -3.001489,-0.0268 -3.682999,-0.20904 z m 0.667363,-2.17923 c -2.597594,-0.42457 -5.014219,-1.50681 -7.037037,-3.1514 -0.831974,-0.67641 -2.06283,-1.99587 -2.713755,-2.90911 -0.699101,-0.98083 -1.660174,-2.89328 -1.997797,-3.97543 -1.64549,-5.27414 -0.302007,-10.74734 3.585024,-14.605 2.3406,-2.32291 5.504456,-3.87801 8.705035,-4.27869 1.190283,-0.14901 3.576933,-0.0619 4.671583,0.17061 2.93453,0.62318 5.52867,2.06914 7.62,4.24734 2.70157,2.81379 4.10742,6.29213 4.10583,10.15861 -7.6e-4,1.94957 -0.28141,3.42016 -0.99152,5.19613 -1.83609,4.59204 -5.89727,7.95106 -10.90364,9.01845 -1.10938,0.23652 -3.941344,0.30867 -5.043723,0.12849 z m 3.216963,-3.94334 c 1.34736,-0.13827 2.36374,-0.43438 3.60476,-1.05023 0.60536,-0.30041 1.35647,-0.7407 1.66913,-0.97842 2.10914,-1.60364 3.50883,-3.88256 4.00409,-6.51928 0.17886,-0.95228 0.17862,-2.92748 -5.1e-4,-3.93663 -0.7444,-4.19415 -3.92796,-7.48001 -8.08571,-8.34557 -1.14854,-0.2391 -2.92102,-0.2614 -3.997096,-0.0503 -2.138063,0.41945 -4.234431,1.55647 -5.63994,3.05896 -1.497285,1.60061 -2.535893,3.76253 -2.816672,5.86309 -0.132627,0.99219 -0.0483,2.8952 0.170974,3.85813 0.587557,2.5803 2.243005,4.9924 4.408735,6.42382 1.231594,0.81401 2.424669,1.30694 3.744393,1.54703 1.228096,0.22342 1.783266,0.24787 2.937846,0.12939 z m 14.90776,-4.27287 c 0,-0.035 0.091,-0.48736 0.20225,-1.0052 0.11124,-0.51784 0.26701,-1.39873 0.34616,-1.95753 0.0791,-0.5588 0.18224,-1.26365 0.22909,-1.56633 0.14581,-0.94214 0.22699,-3.29465 0.15339,-4.44549 -0.096,-1.50134 -0.41259,-2.73465 -1.0122,-3.94319 -0.36392,-0.73351 -0.41317,-0.81243 -2.10572,-3.3742 -1.0218,-1.54656 -1.65125,-2.4105 -2.0376,-2.79667 -0.68719,-0.68689 -1.99968,-1.57122 -3.06299,-2.0638 -2.39911,-1.11137 -7.08901,-2.33429 -8.97481,-2.34023 -1.070958,-0.003 -2.842404,0.30731 -4.184569,0.73392 -2.318921,0.73707 -5.716737,2.93868 -8.061901,5.22369 -0.382745,0.37293 -0.720749,0.65321 -0.75112,0.62283 -0.129679,-0.12968 0.978376,-1.70941 1.888651,-2.69262 0.501849,-0.54205 1.537891,-1.38008 2.267703,-1.83429 2.809736,-1.74866 6.586675,-2.6723 10.964326,-2.6813 1.81906,-0.004 1.94702,0.007 2.83634,0.2346 2.41197,0.61771 3.95872,1.53818 7.32366,4.3583 3.16211,2.65012 3.75139,3.59815 4.98104,8.01345 1.28743,4.62276 1.21954,7.27848 -0.26576,10.39647 -0.38588,0.81005 -0.73594,1.34165 -0.73594,1.11759 z M 59.56429,130.1993 c -0.02741,-0.0864 -0.08258,-0.40068 -0.122592,-0.6985 -0.04002,-0.29782 -0.153295,-1.00077 -0.251727,-1.5621 -0.09843,-0.56134 -0.215676,-1.34239 -0.260543,-1.73567 -0.04487,-0.39328 -0.124398,-1.01985 -0.176734,-1.39239 -0.06124,-0.43588 -0.08137,-1.58276 -0.05649,-3.21733 0.03952,-2.59611 0.09179,-3.10544 0.528379,-5.14809 0.07162,-0.33508 0.164418,-0.78069 0.206219,-0.99024 0.121596,-0.60956 0.812107,-2.93086 1.142301,-3.84009 1.697409,-4.67403 4.598704,-9.60459 8.377046,-14.236253 3.994633,-4.896792 6.709247,-7.51906 9.829565,-9.495185 3.331768,-2.110039 7.185276,-3.485104 11.811001,-4.214574 1.551741,-0.244708 1.879374,-0.289809 3.048,-0.419585 0.62865,-0.06981 1.6764,-0.186566 2.328333,-0.259454 0.651934,-0.07289 1.547284,-0.13351 1.989667,-0.134715 0.442383,-0.0012 1.185333,-0.05739 1.651,-0.124859 0.465665,-0.06747 1.087835,-0.12341 1.382595,-0.124315 0.29477,-9.05e-4 0.99962,-0.06222 1.56634,-0.136266 1.35793,-0.177413 4.8847,-0.12837 6.02573,0.08379 2.05834,0.382728 3.47411,0.796051 5.27357,1.539573 0.73984,0.305696 3.06283,1.441581 3.75505,1.836128 0.20316,0.115797 0.57893,0.323845 0.83504,0.46233 6.40245,3.461868 9.99887,5.875515 13.07495,8.774918 3.07419,2.897628 5.13704,5.816427 6.44028,9.112547 0.67543,1.70829 1.73611,4.85038 1.73611,5.14296 0,0.26448 -0.24502,-0.0819 -0.75856,-1.07232 -0.74664,-1.44 -1.38633,-2.38271 -3.93994,-5.8063 -2.53746,-3.401958 -3.09545,-4.109069 -4.87718,-6.180677 -4.03827,-4.69528 -8.34021,-7.822605 -12.81866,-9.318617 -1.42183,-0.47496 -4.2948,-1.185919 -6.477,-1.602829 -0.7412,-0.141608 -2.83226,-0.582217 -4.23333,-0.892008 -3.96019,-0.875644 -5.4362,-1.102452 -7.154328,-1.09936 -3.298545,0.0059 -6.939286,0.826453 -10.795001,2.432874 -4.736821,1.97352 -12.478207,6.393772 -15.705668,8.967776 -1.167671,0.931256 -3.059653,2.776999 -3.965698,3.868778 -4.213814,5.077633 -6.90005,11.492603 -8.21342,19.614393 -0.341286,2.11049 -0.479766,3.07374 -0.479138,3.3328 3.39e-4,0.13336 -0.05506,0.62866 -0.123069,1.10067 -0.33536,2.32743 -0.385316,3.01311 -0.384833,5.28203 4.48e-4,2.11053 -0.05087,2.64291 -0.207265,2.15016 z m 15.558581,-1.0179 c -0.05458,-0.0874 -0.124659,-0.30648 -0.155725,-0.48683 -0.03106,-0.18036 -0.105014,-0.53748 -0.164331,-0.79359 -0.141033,-0.60896 -0.355011,-2.16507 -0.465692,-3.38667 -0.09136,-1.00841 0.03195,-2.97937 0.246318,-3.937 0.05212,-0.23283 0.136077,-0.61383 0.186569,-0.84667 0.245983,-1.13429 1.006462,-3.24057 1.901559,-5.26668 1.488531,-3.36938 2.472641,-5.37197 3.111992,-6.33265 1.15336,-1.73303 1.911091,-2.41512 4.330152,-3.89787 1.514075,-0.92804 1.956743,-1.23918 3.023702,-2.12526 0.877942,-0.72911 1.603345,-1.23154 2.061041,-1.42753 0.183659,-0.0786 0.942748,-0.35123 1.686866,-0.60575 0.744118,-0.254524 1.849018,-0.684697 2.455334,-0.955942 1.944057,-0.869705 2.929634,-1.116638 5.462725,-1.368665 1.582849,-0.157484 4.437329,-0.01691 6.194969,0.305094 5.66804,1.038387 10.72035,3.521963 14.73263,7.242173 1.55525,1.44203 3.27255,3.57816 4.39929,5.47221 0.73285,1.23193 1.20488,2.14233 1.14289,2.20431 -0.0231,0.0231 -0.12189,-0.11469 -0.21958,-0.30617 -0.3306,-0.64803 -1.35738,-2.22472 -2.01006,-3.08657 -3.13395,-4.13837 -6.81158,-7.01097 -11.37081,-8.88176 -2.64516,-1.085384 -5.9888,-1.713947 -9.10167,-1.710988 -1.80627,0.0017 -3.139714,0.145356 -6.392326,0.688574 -0.395817,0.0661 -1.004807,0.15616 -1.353312,0.20011 -0.884692,0.11158 -1.459183,0.232024 -2.245022,0.470674 -0.660947,0.20072 -0.882265,0.3097 -2.455333,1.20903 -0.4191,0.2396 -1.12395,0.59248 -1.566334,0.78418 -2.53436,1.09821 -3.304224,1.72066 -4.969897,4.01821 -0.33526,0.46245 -1.12868,1.41226 -1.763157,2.11071 -2.783049,3.06363 -3.280463,3.7163 -4.06509,5.3339 -0.970756,2.00132 -1.490853,4.00574 -1.90031,7.32366 -0.05459,0.44239 -0.153475,1.15925 -0.219737,1.59303 -0.06626,0.43378 -0.120476,1.01327 -0.120476,1.28777 0,0.2745 -0.05957,0.87522 -0.132387,1.33494 -0.09508,0.60032 -0.124903,1.28127 -0.105833,2.4165 0.0146,0.86935 0.0071,1.58059 -0.01658,1.58053 -0.02372,-5e-5 -0.08779,-0.0716 -0.142375,-0.15901 z m 47.085029,-8.19957 c -0.0772,-0.43571 -0.49087,-1.87397 -0.7616,-2.64819 -0.3197,-0.91428 -0.58175,-1.51937 -1.14611,-2.64649 -2.73029,-5.45283 -7.25747,-8.97965 -13.66515,-10.64558 -0.5588,-0.14529 -1.3208,-0.35579 -1.69333,-0.46779 -1.63523,-0.49161 -2.2588,-0.57017 -3.33093,-0.41968 -0.52171,0.0732 -1.53269,0.12487 -2.444903,0.12487 -2.02997,0 -2.236209,0.0547 -4.46883,1.18464 -0.9779,0.49493 -2.0828,1.0273 -2.455333,1.18306 -2.851297,1.19213 -3.739144,1.70709 -4.998518,2.89919 -1.239241,1.17305 -2.220458,2.51033 -3.96303,5.40112 -0.990122,1.64253 -1.630297,2.83955 -2.000537,3.74067 -0.278486,0.67781 -0.510311,0.99294 -0.51018,0.69353 8.5e-5,-0.21133 0.225995,-1.28539 0.425111,-2.0212 0.810496,-2.99514 2.080145,-5.00072 4.743955,-7.4937 0.948795,-0.88795 1.610117,-1.46334 3.654233,-3.17942 1.971527,-1.65515 3.500624,-2.34133 5.654633,-2.53754 0.942903,-0.0859 2.366942,-0.3438 3.513666,-0.63637 1.207914,-0.30818 2.109373,-0.39101 2.751663,-0.25283 0.25612,0.0551 1.32292,0.13033 2.37067,0.16717 1.49504,0.0526 2.06833,0.10661 2.66398,0.25114 2.17878,0.52863 4.60458,1.63665 6.46772,2.95422 1.28714,0.91024 2.14471,1.63391 3.22963,2.72536 2.56214,2.57755 4.22273,5.18771 5.36021,8.4253 0.26282,0.74807 0.67765,2.42877 0.76759,3.10995 0.0553,0.41919 -0.092,0.49845 -0.16461,0.0886 z"
       id="path539" />
  </g>
</svg>
