<?xml version="1.0" encoding="UTF-8" standalone="no"?>
<!-- Created with Inkscape (http://www.inkscape.org/) -->

<svg
   width="291.29108mm"
   height="84.555756mm"
   viewBox="0 0 291.29108 84.555756"
   version="1.1"
   id="svg5"
   inkscape:version="1.1.2 (b8e25be833, 2022-02-05)"
   sodipodi:docname="logo_full.svg"
   xmlns:inkscape="http://www.inkscape.org/namespaces/inkscape"
   xmlns:sodipodi="http://sodipodi.sourceforge.net/DTD/sodipodi-0.dtd"
   xmlns="http://www.w3.org/2000/svg"
   xmlns:svg="http://www.w3.org/2000/svg">
  <sodipodi:namedview
     id="namedview7"
     pagecolor="#505050"
     bordercolor="#eeeeee"
     borderopacity="1"
     inkscape:pageshadow="0"
     inkscape:pageopacity="0"
     inkscape:pagecheckerboard="0"
     inkscape:document-units="mm"
     showgrid="false"
     inkscape:zoom="0.90583672"
     inkscape:cx="627.59655"
     inkscape:cy="454.82811"
     inkscape:window-width="1920"
     inkscape:window-height="1177"
     inkscape:window-x="-8"
     inkscape:window-y="-8"
     inkscape:window-maximized="1"
     inkscape:current-layer="layer1" />
  <defs
     id="defs2" />
  <g
     inkscape:label="Слой 1"
     inkscape:groupmode="layer"
     id="layer1"
     transform="translate(35.298404,-73.57232)">
    <path
       style="fill:#ffffff;stroke-width:0.0846667"
       d="m 4.9016722,158.07387 c -0.186267,-0.0399 -0.512928,-0.0747 -0.725913,-0.0773 -0.212987,-0.003 -0.727337,-0.0581 -1.143,-0.12325 -0.415665,-0.0651 -1.060554,-0.16361 -1.433087,-0.21892 -1.56216201,-0.23188 -3.4104925,-0.63838 -5.4429184,-1.19701 -7.1657598,-1.96959 -14.1283448,-6.13463 -19.1427088,-11.45122 -2.536912,-2.68982 -4.064311,-4.68569 -5.677741,-7.41915 -0.628073,-1.06407 -1.646761,-3.12776 -1.577923,-3.1966 0.02693,-0.0269 0.04896,-0.0104 0.04896,0.0368 0,0.10272 1.653865,2.85588 2.432177,4.0488 2.893229,4.43446 7.077934,8.60923 11.696485,11.66871 4.451193,2.94862 9.4684017,5.02247 14.4463387,5.97135 4.2422475,0.80864 7.5955795,0.89199 12.0650003,0.29986 3.190247,-0.42265 6.832356,-1.30586 10.033,-2.433 0.465667,-0.16399 1.627717,-0.53157 2.582333,-0.81684 2.009185,-0.60043 2.314095,-0.70871 3.341516,-1.18673 1.01827,-0.47376 1.670818,-0.90788 2.881485,-1.91694 1.196989,-0.99767 1.868243,-1.48413 3.132666,-2.27025 2.47601,-1.5394 3.002506,-1.95277 4.047488,-3.17782 0.417078,-0.48895 0.810491,-0.91947 0.874251,-0.95671 0.208211,-0.12161 0.130421,0.23099 -0.218254,0.98929 -0.285862,0.62168 -0.466434,0.86469 -1.248833,1.68064 -0.503058,0.52463 -1.317453,1.41105 -1.809767,1.96982 -1.40924,1.59949 -2.267095,2.23598 -4.565885,3.3877 -0.814916,0.40829 -1.595966,0.79992 -1.735666,0.87031 -0.1397,0.0704 -0.65405,0.38419 -1.143,0.69735 -1.731686,1.10907 -2.677629,1.67937 -3.55951,2.146 -2.061162,1.0906 -5.950304,2.14553 -9.606158,2.60567 -0.916529,0.11536 -8.0653578,0.17343 -8.5513328,0.0695 z m 1.3036639,-8.4649 c -0.3540169,-0.0339 -1.1409209,-0.0873 -1.7486749,-0.11873 -0.607752,-0.0314 -1.23225,-0.0936 -1.387772,-0.13815 -0.15552,-0.0446 -0.415497,-0.0811 -0.577724,-0.0811 -0.341876,0 -1.201348,-0.16312 -2.75416051,-0.52272 -2.43164499,-0.56312 -4.96814289,-1.44374 -6.64633299,-2.30747 -0.116417,-0.0599 -0.420691,-0.21616 -0.676166,-0.34721 -0.2554739,-0.13104 -0.4161779,-0.25437 -0.3571199,-0.27406 0.05906,-0.0197 0.191883,0.0187 0.2951649,0.0853 0.103283,0.0666 0.473537,0.22772 0.822787,0.35808 0.34925,0.13037 0.8255,0.32166 1.058334,0.42509 1.7411531,0.77351 4.99959499,1.65205 7.4930005,2.02026 2.613442,0.38595 3.03155,0.41427 5.4656599,0.37027 3.2016149,-0.0579 4.9796709,-0.29815 8.0386729,-1.08631 6.548445,-1.6872 12.430864,-5.79258 17.274816,-12.0562 0.32411,-0.4191 1.078976,-1.34768 1.677481,-2.06352 1.291899,-1.54518 1.724548,-2.19345 2.295551,-3.43963 0.234751,-0.51233 0.723836,-1.4538 1.086857,-2.09216 0.720975,-1.2678 1.530698,-2.9319 1.841842,-3.78526 0.227275,-0.62333 0.311643,-0.55224 0.176298,0.14854 -0.05092,0.26365 -0.129235,0.80322 -0.174033,1.19903 -0.16541,1.46149 -0.613668,2.64602 -1.689012,4.46325 -0.331883,0.56085 -0.98235,1.84726 -1.445482,2.85869 -0.463133,1.01143 -0.994604,2.09573 -1.181048,2.40957 -1.059986,1.78422 -3.525209,4.44391 -5.898999,6.36433 -1.525782,1.23438 -4.021311,2.79142 -6.09027,3.79991 -4.893583,2.38534 -8.784432,3.43142 -14.0015299,3.76443 -1.130102,0.0721 -2.099671,0.12583 -2.1546,0.11931 -0.05493,-0.007 -0.389521,-0.0396 -0.74354,-0.0735 z m -14.5963313,-3.97864 c -0.02878,-0.0466 -0.01423,-0.0847 0.03234,-0.0847 0.04657,0 0.108214,0.0381 0.136993,0.0847 0.02878,0.0466 0.01423,0.0847 -0.03234,0.0847 -0.04657,0 -0.108213,-0.0381 -0.136993,-0.0847 z m -0.296333,-0.16934 c -0.07631,-0.0493 -0.08675,-0.0826 -0.02616,-0.0834 0.05546,-6.8e-4 0.124384,0.0368 0.153164,0.0834 0.06496,0.10512 0.03566,0.10512 -0.127,0 z m 127.8074982,-3.05429 1.316,-2.63096 -1.28569,-2.42787 c -0.70714,-1.33533 -1.45509,-2.7422 -1.6621,-3.12638 l -0.3764,-0.6985 h 0.76269 0.76268 l 1.20211,2.3495 c 0.66117,1.29223 1.22629,2.37602 1.25583,2.40842 0.0296,0.0324 0.56725,-1.02486 1.19488,-2.3495 l 1.14116,-2.40842 h 0.74389 0.7439 l -0.24158,0.48684 c -0.13287,0.26775 -1.39743,2.85855 -2.81014,5.75733 l -2.56856,5.2705 h -0.74735 -0.74734 z M 105.52801,118.66399 V 92.713655 h 1.05834 1.05833 v 25.950335 25.95034 h -1.05833 -1.05834 z M 6.2874361,143.13553 c -0.0217,-0.0217 -0.5900269,-0.0789 -1.2629439,-0.12711 -0.672918,-0.0482 -1.775937,-0.127 -2.451153,-0.17509 -4.0718105,-0.29003 -5.9172865,-1.06507 -10.1535665,-4.2642 -0.6104639,-0.461 -1.0965839,-0.85154 -1.0802639,-0.86786 0.01632,-0.0163 0.390635,0.1172 0.831813,0.29671 0.4411789,0.17951 1.0666399,0.41235 1.3899139,0.51742 0.697113,0.22658 5.385989,1.95557 6.89543649,2.54265 2.36825601,0.92109 3.07938701,1.12714 4.54371201,1.31653 2.9551689,0.38221 6.4846288,-0.25762 11.3312878,-2.05416 3.820429,-1.41614 6.213441,-2.60262 8.043334,-3.98795 0.877325,-0.66418 2.480262,-2.29621 3.491397,-3.55478 0.535092,-0.66603 0.992285,-1.19157 1.015984,-1.16787 0.06277,0.0628 -0.629597,1.79253 -0.862573,2.15501 -0.452114,0.70341 -3.560493,3.62437 -5.483699,5.15306 -2.53163,2.01231 -4.776253,3.13263 -7.55911,3.77286 -1.843466,0.42411 -2.573471,0.48599 -5.7220549,0.48509 -1.610431,-4.3e-4 -2.945812,-0.0186 -2.967514,-0.0403 z M 147.47909,137.48116 c -0.96996,-2.10714 -1.77831,-3.85974 -1.79632,-3.89467 -0.018,-0.0349 0.30287,-0.0628 0.71308,-0.062 l 0.74583,0.001 1.05834,2.48813 c 0.58208,1.36848 1.07649,2.47041 1.0987,2.44875 0.0222,-0.0217 0.5231,-1.24677 1.11313,-2.72247 0.59002,-1.47569 1.09846,-2.68308 1.12985,-2.68308 0.0314,0 0.55545,1.23166 1.16455,2.73701 l 1.10745,2.737 1.06666,-2.50255 1.06666,-2.50255 0.73805,-0.002 0.73807,-0.002 -0.36335,0.78316 c -0.19984,0.43074 -1.00653,2.18334 -1.79266,3.89467 -0.78611,1.71132 -1.45246,3.1115 -1.48077,3.1115 -0.0283,0 -0.54207,-1.21664 -1.14169,-2.70365 l -1.09022,-2.70364 -0.13714,0.31181 c -0.0754,0.1715 -0.56863,1.38814 -1.096,2.70365 -0.52736,1.3155 -0.98579,2.39183 -1.01874,2.39183 -0.0329,0 -0.85351,-1.72403 -1.82348,-3.83117 z m -19.36659,3.56991 c -0.41161,-0.097 -1.12249,-0.45699 -1.51887,-0.76913 -0.44797,-0.35278 -0.97255,-1.18258 -1.18059,-1.86747 -0.14794,-0.48706 -0.17247,-0.74017 -0.1408,-1.45237 0.0345,-0.7756 0.0691,-0.92622 0.34359,-1.49465 0.71844,-1.48787 2.04714,-2.264 3.73002,-2.17881 1.26735,0.0642 2.23148,0.55523 2.93915,1.49706 0.57548,0.76589 0.71544,1.24835 0.71436,2.46263 -9.3e-4,1.00889 -0.0134,1.08485 -0.26712,1.62606 -0.35164,0.75 -0.71771,1.19151 -1.32313,1.59579 -0.6881,0.4595 -1.43037,0.6749 -2.28918,0.66431 -0.37927,-0.005 -0.83261,-0.0422 -1.00743,-0.0834 z m 2.1995,-1.31406 c 0.89329,-0.43018 1.40235,-1.34894 1.40235,-2.53102 0,-1.20155 -0.57247,-2.17509 -1.52677,-2.5964 -0.62385,-0.27542 -1.55061,-0.25551 -2.16805,0.0466 -1.58411,0.77504 -1.95961,3.17093 -0.71851,4.58447 0.68619,0.78153 1.97698,0.99433 3.01098,0.49638 z m 53.0955,1.24803 c -0.65205,-0.21467 -1.00168,-0.44482 -1.49397,-0.98346 -0.60972,-0.66713 -0.87514,-1.37814 -0.9284,-2.48694 -0.0678,-1.41194 0.221,-2.32225 1.011,-3.18664 0.6208,-0.67925 1.3087,-0.98741 2.32257,-1.04045 2.15582,-0.11276 3.49927,1.14273 3.71776,3.47434 l 0.0615,0.65577 h -2.90041 -2.9004 l 0.0501,0.42325 c 0.15254,1.28802 1.06138,2.15161 2.26434,2.15161 0.78539,0 1.25303,-0.20159 1.76366,-0.7603 0.23117,-0.25294 0.44597,-0.45989 0.47733,-0.45989 0.1458,0 0.96693,0.56341 0.96905,0.66492 0.001,0.063 -0.25477,0.37131 -0.56909,0.68508 -0.75892,0.75757 -1.24759,0.95338 -2.4765,0.99238 -0.69676,0.0221 -0.99269,-0.006 -1.36852,-0.12967 z m 3.21976,-4.93094 c -0.1464,-0.65158 -0.54684,-1.1563 -1.17391,-1.4796 -0.43282,-0.22315 -1.37318,-0.20867 -1.82835,0.0281 -0.56038,0.29156 -1.04354,0.91878 -1.17384,1.52385 l -0.0593,0.27517 h 2.15672 2.15673 z m 4.99291,4.93094 c -0.65206,-0.21467 -1.00169,-0.44482 -1.49397,-0.98346 -0.60972,-0.66713 -0.87514,-1.37814 -0.9284,-2.48694 -0.0678,-1.41194 0.221,-2.32225 1.011,-3.18664 0.6208,-0.67925 1.3087,-0.98741 2.32257,-1.04045 2.15581,-0.11276 3.49927,1.14273 3.71776,3.47434 l 0.0615,0.65577 h -2.90041 -2.90041 l 0.0501,0.42325 c 0.15255,1.28802 1.06139,2.15161 2.26435,2.15161 0.78539,0 1.25303,-0.20159 1.76365,-0.7603 0.23118,-0.25294 0.44598,-0.45989 0.47734,-0.45989 0.1458,0 0.96692,0.56341 0.96905,0.66492 0.001,0.063 -0.25477,0.37131 -0.5691,0.68508 -0.75891,0.75757 -1.24758,0.95338 -2.4765,0.99238 -0.69675,0.0221 -0.99269,-0.006 -1.36851,-0.12967 z m 3.21976,-4.93094 c -0.14641,-0.65158 -0.54685,-1.1563 -1.17391,-1.4796 -0.43282,-0.22315 -1.37319,-0.20867 -1.82835,0.0281 -0.56039,0.29156 -1.04355,0.91878 -1.17385,1.52385 l -0.0593,0.27517 h 2.15673 2.15673 z m -58.30498,4.88442 c -0.96134,-0.31238 -1.5619,-1.00644 -1.7864,-2.06453 -0.058,-0.27317 -0.0952,-1.40742 -0.0952,-2.89983 v -2.45117 h 0.635 0.635 l 0.002,2.13784 c 0.002,2.99796 0.11117,3.58665 0.7415,4.01142 0.57935,0.39043 1.64375,0.31709 2.1173,-0.14589 0.48204,-0.47129 0.52619,-0.7667 0.52619,-3.52078 l -1e-5,-2.48259 h 0.68371 0.68371 l -0.0303,2.64584 c -0.0292,2.54596 -0.0379,2.66484 -0.23045,3.14955 -0.25391,0.63921 -0.81154,1.24031 -1.38486,1.49283 -0.55217,0.2432 -1.9248,0.31319 -2.49683,0.12731 z m 63.42062,0.002 c -1.56958,-0.51111 -2.56422,-1.97652 -2.56422,-3.77789 0,-1.27699 0.37439,-2.16152 1.26319,-2.9844 0.72654,-0.67264 1.24338,-0.86044 2.37748,-0.86387 0.80182,-0.002 0.93557,0.0202 1.36394,0.23056 0.26598,0.13062 0.66642,0.43571 0.91016,0.69343 l 0.43523,0.46019 v -3.3816 -3.3816 h 0.635 0.635 v 6.477 6.477 h -0.635 -0.635 v -0.59831 -0.59831 l -0.42165,0.43289 c -0.62282,0.63943 -1.20156,0.8778 -2.20302,0.90735 -0.51403,0.0152 -0.9331,-0.0182 -1.16111,-0.0924 z m 2.29743,-1.22556 c 0.75175,-0.33414 1.23317,-0.93215 1.45852,-1.81181 0.46673,-1.82183 -0.70893,-3.47937 -2.46784,-3.47937 -1.09848,0 -2.0462,0.66272 -2.37854,1.66325 -0.1702,0.51244 -0.1931,1.46674 -0.0475,1.9793 0.41733,1.46895 2.06287,2.25865 3.43535,1.64863 z m 5.63051,1.09623 c -0.54538,-0.54538 -0.17222,-1.44585 0.59917,-1.44585 0.27583,0 0.40508,0.0534 0.59918,0.24749 0.54538,0.54538 0.17222,1.44585 -0.59918,1.44585 -0.27582,0 -0.40507,-0.0534 -0.59917,-0.24749 z m -49.35416,-3.60485 v -3.683 h 0.67733 0.67734 v 3.683 3.683 h -0.67734 -0.67733 z m 3.556,-2.794 v -6.477 h 0.67733 0.67734 v 6.477 6.477 h -0.67734 -0.67733 z m 3.556,0 v -6.477 h 0.67733 0.67734 v 6.477 6.477 h -0.67734 -0.67733 z m 7.53533,2.794 v -3.683 h 0.67734 0.67733 v 0.44929 0.4493 l 0.45224,-0.43803 c 0.59704,-0.57828 1.09404,-0.74856 2.03417,-0.69694 1.0739,0.059 1.63222,0.419 2.07345,1.33705 l 0.22381,0.46567 0.0262,2.89983 0.0262,2.89983 h -0.6336 -0.6336 l -0.0324,-2.6035 c -0.0351,-2.82308 -0.0591,-2.98574 -0.51086,-3.46552 -0.56586,-0.60096 -1.71753,-0.55942 -2.3881,0.0861 -0.58795,0.56601 -0.63757,0.84834 -0.63757,3.6276 v 2.3553 h -0.67733 -0.67734 z m -191.409006,0.78317 c -1.886132,-1.8507 -3.89687,-4.33451 -4.833122,-5.97023 -1.709344,-2.98639 -2.798701,-6.45993 -3.357005,-10.70421 -0.199,-1.51281 -0.203512,-7.59562 -0.0068,-9.2345 0.07398,-0.61649 0.193506,-1.6162 0.265618,-2.22156 0.714066,-5.99449 2.115268,-9.64676 5.16472,-13.462005 0.867981,-1.08595 3.303108,-3.46817 4.99348,-4.88498 1.43484,-1.20264 1.754784,-1.45797 3.381157,-2.69831 0.465666,-0.35514 1.399116,-1.07654 2.074333,-1.60312 1.5844048,-1.23562 2.6029528,-1.899579 3.8099997,-2.483639 2.8291581,-1.36896 5.687229,-1.89426 11.8110005,-2.17082 0.931333,-0.0421 1.9612339,-0.10154 2.2886679,-0.13218 0.791453,-0.0741 4.8458609,0.10445 5.9663319,0.26269 2.158057,0.30479 3.274253,0.56466 5.08377,1.18358 2.093458,0.71604 3.42683,1.47686 5.975504,3.409589 1.76849,1.3411 2.545494,2.03556 2.148727,1.92047 -0.116417,-0.0338 -0.535517,-0.23638 -0.931334,-0.45024 -1.28384,-0.69368 -2.688688,-1.32468 -3.767666,-1.69229 -0.261016,-0.0889 -1.741121,-0.62126 -3.386667,-1.21804 -4.892526,-1.774339 -8.7224579,-2.608379 -11.9777169,-2.608379 -1.5245259,0 -2.3805379,0.0841 -4.0200869,0.39481 -1.309254,0.24815 -2.39294201,0.58925 -4.6608645,1.46705 -8.6471217,3.346869 -8.3437827,3.216269 -9.9483337,4.283049 -2.037464,1.3546 -3.991075,3.34727 -5.738231,5.85296 -2.389491,3.426892 -5.87074,10.248015 -6.904781,13.529135 -0.83016,2.63419 -1.210531,5.85516 -0.993734,8.41493 0.193336,2.28276 0.296009,3.00725 0.649267,4.58141 0.7267,3.23825 1.65013,5.78374 3.486107,9.60966 1.62045,3.3768 2.176354,4.33987 3.787496,6.56167 0.893906,1.23271 0.841278,1.242 -0.359788,0.0635 z m 23.5996652,0.2608 c -1.339293,-0.22085 -1.971972,-0.35365 -2.624667,-0.5509 -1.622423,-0.49032 -3.56488451,-1.38205 -6.2653334,-2.87624 -3.3108331,-1.83191 -3.6474411,-2.06251 -4.821421,-3.30299 -0.421119,-0.44497 -0.932674,-1.06211 -1.136787,-1.37144 -0.42667,-0.64659 -1.0905968,-1.88148 -1.0391948,-1.93288 0.04881,-0.0488 2.6073038,1.88331 3.2720687,2.471 0.302683,0.26759 1.085183,1.02479 1.7388881,1.68267 1.819606,1.83123 3.1382079,2.64147 5.41189639,3.32545 1.26003601,0.37905 2.05646101,0.52297 5.08355001,0.91863 1.057751,0.13825 5.7630378,0.19922 6.6136068,0.0857 1.471626,-0.19643 3.246299,-0.76835 4.805769,-1.54874 2.465654,-1.23386 4.516809,-2.89747 6.91662,-5.60979 1.443597,-1.63158 1.884881,-2.19077 2.750669,-3.48561 0.395649,-0.59172 0.756481,-1.09879 0.801849,-1.12683 0.373708,-0.23097 -0.796264,2.48252 -1.732908,4.01909 -2.148577,3.52474 -6.307879,6.40527 -11.646606,8.06585 -3.6855009,1.14636 -6.2817139,1.54149 -8.1279998,1.23704 z m -36.2644942,-5.1119 c -0.198896,-0.41709 -0.170915,-0.48807 0.03702,-0.0939 0.09444,0.17902 0.156737,0.34046 0.138433,0.35877 -0.0183,0.0183 -0.09726,-0.10088 -0.175456,-0.26486 z m 37.8731601,0.13451 -2.5823329,-0.0548 -0.973667,-0.30267 c -0.535516,-0.16646 -1.278466,-0.36861 -1.651,-0.44922 -1.27583201,-0.27604 -1.86350501,-0.50555 -3.0654465,-1.19717 -4.582303,-2.63676 -8.2470929,-8.44504 -8.4661339,-13.41788 -0.05147,-1.16861 0.04585,-4.26609 0.131359,-4.18059 0.02936,0.0294 0.07863,1.01257 0.109492,2.18492 0.0438,1.66393 0.09402,2.30798 0.228915,2.93586 0.728794,3.39229 2.0455959,5.98151 4.138534,8.1376 1.599067,1.64732 2.9401699,2.58082 5.74500639,3.99892 1.84778701,0.93422 2.36811301,1.13281 3.15589001,1.20444 0.309311,0.0281 1.171984,0.16686 1.917051,0.3083 1.2687609,0.24084 1.4034629,0.25118 2.1241429,0.16302 0.423211,-0.0518 0.937561,-0.15357 1.143,-0.22622 0.573408,-0.20279 2.1038479,-0.58807 3.4638569,-0.87201 1.204553,-0.25149 2.261807,-0.58935 2.98161,-0.95282 1.547969,-0.78166 4.654112,-3.8313 6.576266,-6.45664 0.757688,-1.03488 0.774235,-1.06784 0.990012,-1.97203 0.297992,-1.24869 0.462454,-2.2828 0.806042,-5.06822 0.05582,-0.45251 0.07719,-1.46696 0.05263,-2.49767 -0.05654,-2.3726 -0.313746,-3.47098 -1.205203,-5.14674 -0.41164,-0.77381 -2.309621,-3.69872 -3.155081,-4.86219 -1.487592,-2.04714 -3.715298,-3.29109 -7.977611,-4.4547 -1.7554539,-0.479243 -3.1110189,-0.746723 -4.5719999,-0.902163 -0.486198,-0.0517 -1.9575989,0.11813 -3.0479999,0.35187 -2.97694601,0.638123 -6.5265255,2.771023 -9.5461674,5.736183 -0.5238751,0.51442 -0.9525001,0.87818 -0.9525001,0.80835 0,-0.19123 0.590681,-1.16344 1.1661961,-1.91947 0.859938,-1.12966 1.770114,-1.99877 2.4537859,-2.34306 0.332477,-0.16743 0.74937,-0.44985 0.926428,-0.62759 0.784381,-0.7874 3.8851685,-1.946323 6.2485905,-2.335413 2.1538229,-0.35459 2.8533789,-0.40862 4.8259999,-0.37279 1.6682199,0.0303 2.0478609,0.0622 2.6486959,0.22273 1.964889,0.52487 3.380467,1.25189 5.267637,2.705383 1.255503,0.96699 3.663883,3.02329 4.19647,3.58299 1.044231,1.09739 1.721694,2.36493 2.353806,4.40398 1.238127,3.99391 1.599179,6.47695 1.28555,8.84101 -0.163549,1.2328 -0.427622,2.0141 -1.228704,3.63529 -0.368162,0.74506 -0.788764,1.65946 -0.93467,2.032 -0.501595,1.28067 -1.392647,2.77287 -2.256865,3.77943 -0.933531,1.0873 -2.309006,2.11036 -4.403863,3.27555 -0.411065,0.22864 -0.89979,0.50205 -1.086057,0.60759 -2.352176,1.33274 -3.192343,1.65261 -4.50667,1.71579 -0.4084649,0.0196 -1.9047129,0.011 -3.3249969,-0.0191 z M 158.59611,130.99166 c -0.83403,-0.74521 0.32962,-1.95844 1.1867,-1.23726 0.29939,0.25192 0.37985,0.58238 0.22945,0.94234 -0.2438,0.5835 -0.93262,0.72695 -1.41615,0.29492 z M 4.9379482,130.26588 c -2.594066,-0.42262 -5.01390201,-1.50617 -7.0370365,-3.15101 -0.831974,-0.67641 -2.0628309,-1.99587 -2.7137549,-2.90912 -0.697685,-0.97884 -1.6590201,-2.89078 -1.9988741,-3.97542 -1.6478659,-5.25918 -0.300103,-10.74817 3.586101,-14.60501 2.34059999,-2.32291 5.5044555,-3.878 8.7050345,-4.27868 1.1902839,-0.14901 3.5769339,-0.0618 4.6715868,0.17061 2.225162,0.47254 4.457394,1.52646 6.223,2.93812 2.660111,2.12684 4.533346,5.17203 5.25086,8.53595 0.227359,1.06594 0.320591,3.53215 0.176047,4.65695 -0.547778,4.26266 -3.078773,8.16173 -6.797452,10.47165 -1.481897,0.92051 -3.288231,1.64682 -5.0217879,2.01922 -1.102727,0.23688 -3.9313769,0.30796 -5.0437239,0.12674 z m 3.2169639,-3.94295 c 1.347362,-0.13827 2.3637439,-0.43439 3.6047599,-1.05023 0.605367,-0.30041 1.356478,-0.74071 1.669135,-0.97843 2.109133,-1.60364 3.508823,-3.88255 4.004084,-6.51928 0.178868,-0.95227 0.17862,-2.92748 -5.08e-4,-3.93663 -0.744396,-4.19414 -3.927955,-7.48001 -8.0857109,-8.34556 -1.148534,-0.2391 -2.921017,-0.26141 -3.9970969,-0.0503 -2.138062,0.41946 -4.234431,1.55648 -5.63994051,3.05897 -1.49728399,1.6006 -2.53589199,3.76253 -2.81667099,5.86308 -0.132627,0.9922 -0.04829,2.89521 0.170973,3.85814 0.587557,2.5803 2.24300599,4.9924 4.4087355,6.42381 1.231594,0.81401 2.424669,1.30694 3.744393,1.54703 1.2280929,0.22343 1.7832679,0.24788 2.9378469,0.1294 z m 40.8937979,3.94108 c -3.451563,-0.6523 -6.046597,-2.75904 -7.335359,-5.95511 -0.158648,-0.39343 -0.257522,-0.74454 -0.219727,-0.78024 0.07936,-0.075 3.721007,-1.605 3.820025,-1.605 0.03623,0 0.208568,0.31685 0.382981,0.70411 0.611886,1.3586 1.358426,2.29374 2.33503,2.92495 1.727251,1.11638 4.283956,1.09467 5.724703,-0.0486 0.427669,-0.33936 0.928116,-1.08914 1.149147,-1.72166 0.149259,-0.42712 0.1921,-0.74062 0.196164,-1.43547 0.0091,-1.55017 -0.335551,-2.41456 -1.344862,-3.37331 -0.808838,-0.76832 -1.806169,-1.3712 -4.149259,-2.50822 -2.762352,-1.34047 -3.766236,-1.97024 -4.903377,-3.07605 -1.122503,-1.09157 -1.716414,-2.29226 -1.916405,-3.8743 -0.344695,-2.72675 0.794842,-5.2457 3.077481,-6.8028 0.620945,-0.42358 1.878711,-0.99043 2.682088,-1.20877 0.630682,-0.1714 0.913333,-0.19556 2.286,-0.19539 1.369432,1.7e-4 1.662125,0.0251 2.328333,0.19867 1.538529,0.40073 2.777905,1.121 3.940954,2.29032 0.651519,0.65504 1.774893,2.18448 1.773487,2.41455 -8.46e-4,0.0802 -3.27511,2.0041 -3.506935,2.06034 -0.04996,0.0121 -0.24318,-0.21648 -0.429379,-0.508 -0.706916,-1.10678 -1.856494,-2.01784 -2.83646,-2.24795 -1.621011,-0.38064 -3.074789,-0.0545 -4.106444,0.92117 -1.353981,1.28054 -1.271541,3.2416 0.18741,4.45789 0.789017,0.65778 1.604484,1.11035 4.596367,2.55091 2.011731,0.96863 3.271283,1.76925 4.242173,2.69649 1.404984,1.34184 2.025709,2.54697 2.323532,4.51112 0.603581,3.98062 -0.96713,7.25879 -4.243417,8.85626 -1.256775,0.61278 -2.176805,0.81073 -3.930955,0.84576 -1.043042,0.0208 -1.671608,-0.006 -2.123296,-0.0917 z m 20.83463,0.0699 c -2.943098,-0.46353 -5.081854,-1.97491 -6.330129,-4.47327 -0.800523,-1.60219 -1.070694,-2.99091 -1.01302,-5.207 0.03511,-1.34904 0.07273,-1.6885 0.271179,-2.44696 0.860408,-3.2884 2.929628,-5.43552 6.06177,-6.28999 0.62622,-0.17084 0.906179,-0.19457 2.2802,-0.19327 1.881573,0.002 2.613305,0.15005 3.937,0.79779 1.444464,0.70683 2.456189,1.69732 3.212601,3.14519 0.776402,1.48613 1.117532,2.91542 1.205467,5.05074 l 0.05318,1.29117 h -6.372877 -6.372877 l 0.05905,0.48683 c 0.240327,1.98143 1.46542,3.56404 3.135461,4.05048 0.742738,0.21634 2.191842,0.19732 2.927105,-0.0384 1.030926,-0.33052 1.938401,-1.07128 2.685008,-2.19173 0.162907,-0.24447 0.326517,-0.4445 0.363576,-0.4445 0.109999,0 3.250565,1.94357 3.279919,2.02981 0.01482,0.0435 -0.123563,0.30077 -0.307501,0.57163 -1.832195,2.69802 -4.286309,3.94076 -7.714192,3.90637 -0.632087,-0.006 -1.244498,-0.0265 -1.360915,-0.0449 z m 5.310539,-11.98744 c -0.218855,-1.32027 -1.246454,-2.42721 -2.601205,-2.80205 -1.702486,-0.47104 -3.400815,-0.0762 -4.408662,1.02483 -0.393759,0.43019 -0.893919,1.31607 -1.051187,1.86189 l -0.0549,0.1905 h 4.080789 4.080781 z m 14.636418,11.91283 c -2.127989,-0.40039 -3.8493,-1.29077 -5.176315,-2.67755 -1.107668,-1.15755 -1.771734,-2.3353 -2.217843,-3.93342 -0.220633,-0.79037 -0.233087,-0.92981 -0.22965,-2.57136 0.0034,-1.61387 0.01968,-1.79508 0.232249,-2.58233 0.425442,-1.5756 1.244363,-3.0186 2.312255,-4.07434 1.439639,-1.42324 3.350885,-2.34212 5.536234,-2.66166 1.07269,-0.15684 2.98428,-0.0617 3.98012,0.19816 0.91251,0.23809 2.065389,0.67547 2.350889,0.89188 l 0.1919,0.14546 -0.0226,2.3221 -0.0226,2.3221 -0.46243,-0.41077 c -1.174589,-1.04335 -2.334309,-1.5721 -3.828629,-1.74555 -2.949089,-0.34232 -5.309679,1.25372 -5.958435,4.02862 -0.182837,0.78204 -0.179662,2.3343 0.0065,3.175 0.718796,3.24616 3.792125,4.79302 7.313015,3.68077 0.66146,-0.20896 1.79893,-0.86172 2.493849,-1.43115 0.2029,-0.16626 0.39418,-0.30229 0.42509,-0.30229 0.0309,0 0.046,1.00013 0.0336,2.2225 l -0.0226,2.2225 -0.811069,0.40338 c -1.28384,0.63852 -2.19381,0.83879 -3.9726,0.87431 -1.06498,0.0213 -1.66992,-0.006 -2.15104,-0.0964 z M -16.815328,115.82766 v -14.05467 h 2.159 2.159 v 14.05467 14.05467 h -2.159 -2.159 z m 46.820667,1.98967 v -12.06501 h -3.217333 -3.217334 v -1.98966 -1.98967 h 8.593667 8.593667 v 1.98967 1.98966 h -3.259667 -3.259666 v 12.06501 12.065 h -2.116667 -2.116667 z m 173.442831,7.2327 1.31601,-2.63096 -1.2857,-2.42787 c -0.70714,-1.33533 -1.45508,-2.7422 -1.66209,-3.12637 l -0.37641,-0.6985 h 0.76269 0.76268 l 1.20211,2.3495 c 0.66117,1.29222 1.2263,2.37601 1.25584,2.40842 0.0296,0.0324 0.56724,-1.02487 1.19487,-2.3495 l 1.14116,-2.40842 h 0.74389 0.7439 l -0.24158,0.48683 c -0.13286,0.26776 -1.39743,2.85856 -2.81013,5.75733 l -2.56857,5.2705 h -0.74734 -0.74735 z m 17.35666,0 1.31601,-2.63096 -1.2857,-2.42787 c -0.70713,-1.33533 -1.45508,-2.7422 -1.66209,-3.12637 l -0.3764,-0.6985 h 0.76269 0.76267 l 1.20212,2.3495 c 0.66117,1.29222 1.22629,2.37601 1.25583,2.40842 0.0296,0.0324 0.56725,-1.02487 1.19488,-2.3495 l 1.14116,-2.40842 h 0.74389 0.7439 l -0.24158,0.48683 c -0.13287,0.26776 -1.39743,2.85856 -2.81014,5.75733 l -2.56856,5.2705 h -0.74735 -0.74734 z m -101.75618,-1.43066 c -0.22388,-0.0875 -0.5408,-0.26107 -0.70429,-0.38577 -0.32934,-0.2512 -0.79368,-0.85003 -0.79368,-1.02357 0,-0.15679 0.95119,-0.86181 0.9931,-0.73609 0.093,0.27911 0.54903,0.77796 0.83856,0.91736 0.44191,0.21276 1.09973,0.2086 1.47379,-0.009 0.59662,-0.3476 0.62746,-1.24778 0.0573,-1.67309 -0.14984,-0.11178 -0.69756,-0.41905 -1.21716,-0.68283 -1.1585,-0.58812 -1.5704,-0.98902 -1.72475,-1.67868 -0.23137,-1.03394 0.31675,-1.98363 1.34861,-2.3366 0.40914,-0.13995 1.34912,-0.12181 1.80909,0.0349 0.40359,0.13752 1.16555,0.73636 1.15917,0.91101 -0.004,0.10617 -0.7771,0.73364 -0.90405,0.73364 -0.0422,0 -0.18675,-0.11491 -0.32131,-0.25536 -0.6456,-0.67387 -1.8529,-0.42351 -1.8529,0.38425 0,0.42257 0.26999,0.65705 1.35992,1.18108 1.55332,0.74682 2.02336,1.33216 2.01369,2.50762 -0.008,1.00106 -0.58084,1.82584 -1.50382,2.16613 -0.43299,0.15964 -1.56046,0.12928 -2.03129,-0.0547 z m 19.65485,0.009 c -0.65381,-0.21562 -1.00192,-0.44536 -1.49908,-0.98933 -0.72436,-0.79257 -1.02141,-1.60466 -1.025,-2.80224 -0.005,-1.56757 0.77348,-2.86532 2.1146,-3.52646 0.51827,-0.25549 0.60459,-0.2713 1.48166,-0.2713 0.83525,0 0.98174,0.0236 1.41985,0.22893 0.27428,0.12852 0.67344,0.41876 0.91017,0.66181 l 0.42165,0.43289 v -0.59832 -0.5983 h 0.635 0.635 v 3.683 3.683 h -0.635 -0.635 v -0.5876 -0.5876 l -0.43523,0.46019 c -0.6353,0.67173 -1.18498,0.91417 -2.14236,0.94488 -0.5735,0.0184 -0.8876,-0.0153 -1.24626,-0.13355 z m 2.38233,-1.20413 c 1.05251,-0.45277 1.69368,-1.79293 1.45971,-3.05103 -0.25876,-1.39141 -1.19428,-2.21794 -2.51887,-2.22543 -1.29297,-0.007 -2.24104,0.83704 -2.49165,2.21904 -0.16346,0.90146 0.0868,1.85726 0.64931,2.47991 0.71782,0.79454 1.86584,1.02304 2.9015,0.57751 z m 19.53415,1.19485 c -0.22387,-0.0875 -0.5408,-0.26107 -0.70429,-0.38577 -0.32934,-0.2512 -0.79367,-0.85003 -0.79367,-1.02357 0,-0.15679 0.95118,-0.86181 0.99309,-0.73609 0.093,0.27911 0.54903,0.77796 0.83857,0.91736 0.44191,0.21276 1.09973,0.2086 1.47378,-0.009 0.59662,-0.3476 0.62747,-1.24778 0.0573,-1.67309 -0.14983,-0.11178 -0.69756,-0.41905 -1.21716,-0.68283 -1.1585,-0.58812 -1.57039,-0.98902 -1.72474,-1.67868 -0.23138,-1.03394 0.31674,-1.98363 1.3486,-2.3366 0.40915,-0.13995 1.34912,-0.12181 1.80909,0.0349 0.40359,0.13752 1.16556,0.73636 1.15917,0.91101 -0.004,0.10617 -0.77709,0.73364 -0.90404,0.73364 -0.0422,0 -0.18676,-0.11491 -0.32131,-0.25536 -0.64561,-0.67387 -1.85291,-0.42351 -1.85291,0.38425 0,0.42257 0.27,0.65705 1.35993,1.18108 1.55332,0.74682 2.02335,1.33216 2.01368,2.50762 -0.008,1.00106 -0.58083,1.82584 -1.50382,2.16613 -0.43298,0.15964 -1.56046,0.12928 -2.03129,-0.0547 z m 7.12419,0.009 c -0.65206,-0.21467 -1.00169,-0.44483 -1.49397,-0.98347 -0.60972,-0.66713 -0.87514,-1.37813 -0.9284,-2.48694 -0.0678,-1.41194 0.221,-2.32225 1.011,-3.18663 0.6208,-0.67926 1.3087,-0.98742 2.32257,-1.04045 2.15581,-0.11277 3.49927,1.14272 3.71776,3.47433 l 0.0615,0.65577 h -2.90041 -2.90041 l 0.0501,0.42325 c 0.15255,1.28803 1.06138,2.15161 2.26435,2.15161 0.78539,0 1.25303,-0.20159 1.76365,-0.7603 0.23118,-0.25294 0.44598,-0.45989 0.47734,-0.45989 0.1458,0 0.96692,0.56342 0.96905,0.66492 0.001,0.063 -0.25477,0.37131 -0.5691,0.68508 -0.75891,0.75757 -1.24759,0.95339 -2.4765,0.99238 -0.69675,0.0221 -0.99269,-0.006 -1.36851,-0.12966 z m 3.21976,-4.93095 c -0.14641,-0.65158 -0.54685,-1.1563 -1.17391,-1.4796 -0.43282,-0.22314 -1.37319,-0.20867 -1.82835,0.0281 -0.56039,0.29157 -1.04355,0.91878 -1.17385,1.52386 l -0.0593,0.27516 h 2.15673 2.15673 z m 5.39856,4.99999 c -0.57516,-0.144 -1.48219,-0.67911 -1.85615,-1.09505 -0.74086,-0.824 -1.03542,-1.75017 -0.97246,-3.0576 0.0346,-0.71836 0.077,-0.90085 0.33582,-1.44591 0.70576,-1.48613 2.0301,-2.24559 3.78476,-2.17043 0.66513,0.0285 0.91061,0.0787 1.34306,0.27494 l 0.52916,0.24008 v 0.74914 0.74913 l -0.43582,-0.32985 c -0.53388,-0.40409 -1.0413,-0.56008 -1.77343,-0.5452 -1.64807,0.0335 -2.73409,1.49614 -2.44668,3.29519 0.11971,0.7494 0.25498,1.05225 0.67209,1.50476 0.8919,0.9676 2.47858,1.04729 3.6137,0.1815 0.1508,-0.11502 0.29731,-0.20913 0.32558,-0.20913 0.0283,0 0.0403,0.31433 0.0268,0.6985 l -0.0246,0.6985 -0.49645,0.24807 c -0.44098,0.22035 -0.59707,0.25071 -1.397,0.27176 -0.4953,0.013 -1.04809,-0.0132 -1.22841,-0.0584 z m 38.61349,-0.078 c -0.22387,-0.0875 -0.5408,-0.26107 -0.70429,-0.38577 -0.32933,-0.2512 -0.79367,-0.85003 -0.79367,-1.02357 0,-0.15679 0.95119,-0.86181 0.9931,-0.73609 0.093,0.27911 0.54903,0.77796 0.83856,0.91736 0.44191,0.21276 1.09973,0.2086 1.47378,-0.009 0.59662,-0.3476 0.62747,-1.24778 0.0573,-1.67309 -0.14983,-0.11178 -0.69756,-0.41905 -1.21716,-0.68283 -1.1585,-0.58812 -1.57039,-0.98902 -1.72474,-1.67868 -0.23138,-1.03394 0.31675,-1.98363 1.3486,-2.3366 0.40915,-0.13995 1.34912,-0.12181 1.80909,0.0349 0.40359,0.13752 1.16556,0.73636 1.15917,0.91101 -0.004,0.10617 -0.77709,0.73364 -0.90404,0.73364 -0.0422,0 -0.18676,-0.11491 -0.32131,-0.25536 -0.64561,-0.67387 -1.85291,-0.42351 -1.85291,0.38425 0,0.42257 0.27,0.65705 1.35993,1.18108 1.55332,0.74682 2.02335,1.33216 2.01369,2.50762 -0.008,1.00106 -0.58084,1.82584 -1.50383,2.16613 -0.43298,0.15964 -1.56046,0.12928 -2.03129,-0.0547 z m 13.208,0 c -0.22387,-0.0875 -0.5408,-0.26107 -0.70429,-0.38577 -0.32933,-0.2512 -0.79367,-0.85003 -0.79367,-1.02357 0,-0.15679 0.95119,-0.86181 0.9931,-0.73609 0.093,0.27911 0.54903,0.77796 0.83856,0.91736 0.44191,0.21276 1.09973,0.2086 1.47378,-0.009 0.59662,-0.3476 0.62747,-1.24778 0.0573,-1.67309 -0.14983,-0.11178 -0.69756,-0.41905 -1.21716,-0.68283 -1.1585,-0.58812 -1.57039,-0.98902 -1.72474,-1.67868 -0.23138,-1.03394 0.31675,-1.98363 1.3486,-2.3366 0.40915,-0.13995 1.34912,-0.12181 1.80909,0.0349 0.40359,0.13752 1.16556,0.73636 1.15917,0.91101 -0.004,0.10617 -0.77709,0.73364 -0.90404,0.73364 -0.0422,0 -0.18676,-0.11491 -0.32131,-0.25536 -0.64561,-0.67387 -1.85291,-0.42351 -1.85291,0.38425 0,0.42257 0.27,0.65705 1.35993,1.18108 1.55332,0.74682 2.02335,1.33216 2.01369,2.50762 -0.008,1.00106 -0.58084,1.82584 -1.50383,2.16613 -0.43298,0.15964 -1.56046,0.12928 -2.03129,-0.0547 z m 11.18819,0.009 c -0.65205,-0.21467 -1.00169,-0.44483 -1.49397,-0.98347 -0.60972,-0.66713 -0.87514,-1.37813 -0.9284,-2.48694 -0.0678,-1.41194 0.221,-2.32225 1.011,-3.18663 0.6208,-0.67926 1.3087,-0.98742 2.32257,-1.04045 2.15581,-0.11277 3.49927,1.14272 3.71776,3.47433 l 0.0614,0.65577 h -2.90041 -2.90041 l 0.0501,0.42325 c 0.15255,1.28803 1.06139,2.15161 2.26435,2.15161 0.78539,0 1.25303,-0.20159 1.76365,-0.7603 0.23118,-0.25294 0.44598,-0.45989 0.47734,-0.45989 0.1458,0 0.96693,0.56342 0.96905,0.66492 0.001,0.063 -0.25477,0.37131 -0.56909,0.68508 -0.75892,0.75757 -1.24759,0.95339 -2.4765,0.99238 -0.69676,0.0221 -0.9927,-0.006 -1.36852,-0.12966 z m 3.21976,-4.93095 c -0.14641,-0.65158 -0.54684,-1.1563 -1.17391,-1.4796 -0.43282,-0.22314 -1.37318,-0.20867 -1.82835,0.0281 -0.56039,0.29157 -1.04354,0.91878 -1.17385,1.52386 l -0.0593,0.27516 h 2.15673 2.15673 z m -59.40565,4.88442 c -0.96134,-0.31237 -1.56189,-1.00644 -1.7864,-2.06453 -0.058,-0.27317 -0.0952,-1.40742 -0.0952,-2.89983 v -2.45116 h 0.635 0.635 l 0.002,2.13783 c 0.002,2.99797 0.11116,3.58665 0.74149,4.01143 0.57935,0.39042 1.64375,0.31708 2.1173,-0.1459 0.48204,-0.47129 0.5262,-0.7667 0.5262,-3.52078 l -2e-5,-2.48258 h 0.68371 0.68372 l -0.0304,2.64583 c -0.0292,2.54596 -0.0379,2.66484 -0.23044,3.14955 -0.25392,0.63921 -0.81155,1.24032 -1.38486,1.49283 -0.55218,0.2432 -1.9248,0.31319 -2.49684,0.12731 z m -58.94693,-3.73252 v -3.683 h 0.67733 0.67734 v 0.43525 0.43525 l 0.33962,-0.38583 c 0.46504,-0.52831 0.92746,-0.73868 1.6238,-0.73868 0.92223,0 1.63521,0.37319 1.9835,1.03819 l 0.12248,0.23385 0.4418,-0.44906 c 0.65309,-0.66383 0.94765,-0.78073 1.9658,-0.78019 0.66098,3.4e-4 0.91165,0.0349 1.143,0.1575 0.48626,0.25769 0.92054,0.73678 1.12003,1.2356 0.1783,0.44582 0.18909,0.61102 0.21713,3.32662 l 0.0295,2.8575 h -0.67894 -0.67895 l -0.0256,-2.68817 c -0.0239,-2.51003 -0.0368,-2.70722 -0.1949,-2.97565 -0.23812,-0.40426 -0.55316,-0.61309 -1.00104,-0.66358 -0.80552,-0.0908 -1.32514,0.17223 -1.69084,0.85588 -0.17883,0.33431 -0.18793,0.45825 -0.21354,2.91035 l -0.0268,2.56117 h -0.66728 -0.66729 l -0.0256,-2.64584 c -0.0237,-2.44922 -0.0382,-2.67059 -0.19495,-2.97903 -0.23511,-0.46263 -0.54061,-0.66104 -1.08767,-0.70641 -0.59411,-0.0493 -1.00039,0.0898 -1.31747,0.45092 -0.45956,0.52342 -0.51586,0.90813 -0.51586,3.52506 v 2.3553 h -0.67734 -0.67733 z m 21.844,0 v -3.683 h 0.67733 0.67734 l 8.4e-4,0.40216 8.5e-4,0.40217 0.33533,-0.3912 c 0.40155,-0.46844 0.78608,-0.66714 1.29112,-0.66714 0.38303,0 1.13026,0.21161 1.21153,0.34309 0.0249,0.0403 -0.0901,0.34209 -0.25562,0.6707 l -0.30088,0.59746 -0.24808,-0.12829 c -0.13644,-0.0706 -0.43755,-0.12829 -0.66912,-0.12829 -0.49767,0 -0.83929,0.23867 -1.13625,0.79382 -0.17883,0.33431 -0.18793,0.45825 -0.21354,2.91035 l -0.0268,2.56117 h -0.67174 -0.67175 v -3.683 z m 5.842,0.59266 v -3.09033 h -0.59267 -0.59266 v -0.59267 -0.59266 h 0.59266 0.59267 v -1.35467 -1.35467 h 0.67733 0.67734 v 1.35467 1.35467 h 0.67733 0.67733 v 0.59266 0.59267 h -0.67733 -0.67733 v 3.09033 3.09034 h -0.67734 -0.67733 z m 37.50733,-0.59266 v -3.683 h 0.67734 0.67733 l 8.5e-4,0.40216 8.4e-4,0.40217 0.33533,-0.3912 c 0.40155,-0.46844 0.78608,-0.66714 1.29113,-0.66714 0.38302,0 1.13026,0.21161 1.21152,0.34309 0.0249,0.0403 -0.0901,0.34209 -0.25562,0.6707 l -0.30088,0.59746 -0.24808,-0.12829 c -0.13644,-0.0706 -0.43755,-0.12829 -0.66912,-0.12829 -0.49766,0 -0.83928,0.23867 -1.13624,0.79382 -0.17884,0.33431 -0.18794,0.45825 -0.21355,2.91035 l -0.0267,2.56117 h -0.67175 -0.67174 v -3.683 z m 5.334,0 v -3.683 h 0.67734 0.67733 v 3.683 3.683 h -0.67733 -0.67734 z m 3.89467,0.59266 v -3.09033 h -0.59267 -0.59266 v -0.59267 -0.59266 h 0.59266 0.59267 v -1.35467 -1.35467 h 0.67733 0.67734 v 1.35467 1.35467 h 0.67733 0.67733 v 0.59266 0.59267 h -0.67733 -0.67733 v 3.09033 3.09034 h -0.67734 -0.67733 z m 34.88267,0 v -3.09033 h -0.59267 -0.59267 v -0.59267 -0.59266 h 0.59267 0.59267 v -1.35467 -1.35467 h 0.67733 0.67733 v 1.35467 1.35467 h 0.67734 0.67733 v 0.59266 0.59267 h -0.67733 -0.67734 v 3.09033 3.09034 h -0.67733 -0.67733 z m 12.10733,-0.59266 v -3.683 h 0.67734 0.67733 v 0.43525 0.43525 l 0.33962,-0.38583 c 0.46504,-0.52831 0.92747,-0.73868 1.6238,-0.73868 0.92223,0 1.63522,0.37319 1.9835,1.03819 l 0.12248,0.23385 0.4418,-0.44906 c 0.65309,-0.66383 0.94766,-0.78073 1.9658,-0.78019 0.66098,3.4e-4 0.91166,0.0349 1.143,0.1575 0.48626,0.25769 0.92055,0.73678 1.12004,1.2356 0.1783,0.44582 0.18908,0.61102 0.21712,3.32662 l 0.0295,2.8575 h -0.67894 -0.67894 l -0.0256,-2.68817 c -0.0239,-2.51003 -0.0368,-2.70722 -0.1949,-2.97565 -0.23811,-0.40426 -0.55316,-0.61309 -1.00104,-0.66358 -0.80552,-0.0908 -1.32514,0.17223 -1.69083,0.85588 -0.17884,0.33431 -0.18794,0.45825 -0.21355,2.91035 l -0.0268,2.56117 h -0.66729 -0.66729 l -0.0256,-2.64584 c -0.0237,-2.44922 -0.0382,-2.67059 -0.19495,-2.97903 -0.2351,-0.46263 -0.54061,-0.66104 -1.08767,-0.70641 -0.59411,-0.0493 -1.00039,0.0898 -1.31747,0.45092 -0.45956,0.52342 -0.51586,0.90813 -0.51586,3.52506 v 2.3553 h -0.67733 -0.67734 z m -279.934293,2.13783 c -0.08314,-0.29104 -0.201508,-0.85302 -0.263037,-1.24883 -0.28376,-1.82544 -0.488117,-3.16289 -0.609515,-3.9891 -0.208077,-1.41611 -0.18384,-5.79611 0.03954,-7.14457 0.586056,-3.53787 1.355137,-6.17963 2.686696,-9.22867 1.574692,-3.605775 4.385343,-8.096875 7.31216,-11.684005 3.295369,-4.038829 5.743581,-6.566439 8.090109,-8.352499 0.635438,-0.48367 2.302899,-1.57334 2.921,-1.90886 0.256117,-0.13903 0.751417,-0.40782 1.100667,-0.59731 1.121138,-0.6083 3.6622768,-1.6144 4.8884358,-1.93546 0.268343,-0.0703 0.8498469,-0.22236 1.2922299,-0.33799 1.6881561,-0.44127 3.0101591,-0.67301 6.47700099,-1.1354 0.9519025,-0.12696 2.29867951,-0.24003 3.99836551,-0.33569 0.802102,-0.0451 1.697452,-0.12087 1.989667,-0.16829 0.292216,-0.0474 0.7789509,-0.0872 1.0816339,-0.0885 0.302684,-0.001 0.931334,-0.0575 1.397,-0.12495 1.350668,-0.19569 5.1494689,-0.17326 6.3923339,0.0378 2.799012,0.4752 4.444786,1.01675 7.239,2.38203 1.132032,0.55312 1.477742,0.73803 4.445,2.3776 6.951895,3.84127 10.931214,6.87577 14.192297,10.822579 1.316647,1.5935 2.365202,3.24295 3.120835,4.90927 0.933467,2.05847 2.631871,6.923955 2.472571,7.083255 -0.06816,0.0682 -0.346346,-0.3907 -0.972659,-1.604363 -0.757995,-1.46884 -1.411461,-2.47197 -2.933912,-4.503832 -0.662948,-0.88476 -1.759144,-2.35161 -2.435992,-3.25966 -4.992152,-6.697399 -9.530479,-10.757609 -14.45914,-12.935849 -0.851196,-0.37618 -2.476412,-0.94413 -3.302,-1.1539 -0.116422,-0.02939 -0.421222,-0.11043 -0.677338,-0.17989 -0.402104,-0.10906 -1.65254,-0.39134 -3.725334,-0.84098 -0.302683,-0.06566 -0.836083,-0.17659 -1.185333,-0.24651 -1.133982,-0.22702 -3.237116,-0.67936 -4.826,-1.03797 -1.6708529,-0.37712 -2.6436719,-0.54792 -4.5719999,-0.80274 -0.7903039,-0.10443 -2.7022449,-0.0568 -3.7253339,0.0928 -2.96609501,0.4338 -4.7692785,0.889 -7.3236664,1.84881 -2.0449041,0.76836 -6.0967848,2.72114 -8.4243338,4.06005 -0.162983,0.0937 -0.662802,0.37969 -1.110708,0.63541 -6.405125,3.6569 -9.327192,5.992379 -12.112827,9.681239 -4.144936,5.48892 -6.580994,12.144965 -7.727921,21.115005 -0.07443,0.58208 -0.172445,1.32503 -0.217818,1.651 -0.392419,2.81919 -0.476536,5.14615 -0.289992,8.02217 0.02341,0.36089 0.01262,0.65617 -0.02398,0.65617 -0.0366,0 -0.134564,-0.23813 -0.217705,-0.52917 z m 229.116383,-8.35217 c -0.83402,-0.7452 0.32963,-1.95844 1.1867,-1.23726 0.29939,0.25192 0.37986,0.58238 0.22946,0.94234 -0.24381,0.58351 -0.93262,0.72696 -1.41616,0.29492 z m -58.92394,-7.36328 c -0.65205,-0.21467 -1.00168,-0.44483 -1.49397,-0.98347 -0.60972,-0.66713 -0.87514,-1.37813 -0.9284,-2.48693 -0.0678,-1.41195 0.221,-2.32226 1.011,-3.186643 0.6208,-0.67926 1.3087,-0.98742 2.32257,-1.04045 2.15581,-0.11276 3.49927,1.14273 3.71776,3.474333 l 0.0614,0.65577 h -2.90041 -2.90041 l 0.0501,0.42325 c 0.15254,1.28803 1.06138,2.15162 2.26434,2.15162 0.78539,0 1.25303,-0.2016 1.76366,-0.76031 0.23117,-0.25294 0.44597,-0.45989 0.47733,-0.45989 0.1458,0 0.96693,0.56342 0.96905,0.66493 0.001,0.063 -0.25477,0.37131 -0.56909,0.68507 -0.75892,0.75757 -1.24759,0.95339 -2.4765,0.99238 -0.69676,0.0221 -0.9927,-0.006 -1.36852,-0.12966 z m 3.21976,-4.93095 c -0.1464,-0.65157 -0.54684,-1.15629 -1.17391,-1.479593 -0.43282,-0.22315 -1.37318,-0.20868 -1.82835,0.0281 -0.56039,0.291563 -1.04354,0.918783 -1.17385,1.523853 l -0.0593,0.27516 h 2.15672 2.15673 z m 12.61291,4.93122 c -0.65381,-0.21562 -1.00192,-0.44536 -1.49908,-0.98932 -0.72436,-0.79257 -1.02141,-1.60466 -1.02501,-2.80225 -0.005,-1.56756 0.77348,-2.865313 2.1146,-3.526453 0.51827,-0.25549 0.6046,-0.2713 1.48167,-0.2713 0.83525,0 0.98174,0.0236 1.41985,0.22892 0.27428,0.12853 0.67344,0.41877 0.91017,0.66181 l 0.42165,0.432893 v -0.598313 -0.59831 h 0.635 0.635 v 3.683003 3.683 h -0.635 -0.635 v -0.5876 -0.5876 l -0.43523,0.46019 c -0.6353,0.67173 -1.18498,0.91417 -2.14237,0.94488 -0.57349,0.0184 -0.88759,-0.0153 -1.24625,-0.13355 z m 2.38233,-1.20412 c 1.05251,-0.45278 1.69368,-1.79294 1.45971,-3.05104 -0.25877,-1.39141 -1.19428,-2.217943 -2.51887,-2.225433 -1.29297,-0.007 -2.24105,0.837053 -2.49165,2.219043 -0.16347,0.90146 0.0868,1.85727 0.64931,2.47991 0.71782,0.79454 1.86584,1.02305 2.9015,0.57752 z m 5.73348,1.19484 c -0.22387,-0.0875 -0.5408,-0.26107 -0.70429,-0.38577 -0.32934,-0.25119 -0.79367,-0.85003 -0.79367,-1.02357 0,-0.15678 0.95118,-0.86181 0.99309,-0.73609 0.093,0.27912 0.54903,0.77796 0.83857,0.91736 0.44191,0.21277 1.09973,0.2086 1.47378,-0.009 0.59662,-0.34759 0.62747,-1.24778 0.0573,-1.67309 -0.14983,-0.11177 -0.69756,-0.41904 -1.21716,-0.68282 -1.1585,-0.58812 -1.57039,-0.98902 -1.72474,-1.67869 -0.23138,-1.033943 0.31674,-1.983633 1.3486,-2.336593 0.40915,-0.13996 1.34912,-0.12182 1.80909,0.0349 0.40359,0.13751 1.16556,0.73635 1.15917,0.911 -0.004,0.10617 -0.77709,0.733643 -0.90404,0.733643 -0.0422,0 -0.18676,-0.11491 -0.32131,-0.25535 -0.64561,-0.673883 -1.85291,-0.423513 -1.85291,0.38424 0,0.42257 0.27,0.65706 1.35993,1.18109 1.55332,0.74681 2.02335,1.33215 2.01368,2.50762 -0.008,1.00106 -0.58083,1.82583 -1.50382,2.16612 -0.43298,0.15964 -1.56046,0.12929 -2.03129,-0.0547 z m -39.59796,-5.42104 v -5.334005 h -1.48167 -1.48167 v -0.635 -0.635 h 3.59834 3.59833 v 0.635 0.635 h -1.43933 -1.43934 v 5.334005 5.334 h -0.67733 -0.67733 z m 5.41866,-1.143003 v -6.477002 h 0.67734 0.67733 v 3.24329 3.243292 l 0.45021,-0.43607 c 0.5466,-0.52941 1.03819,-0.71651 1.88256,-0.71651 1.10831,0 1.73446,0.36166 2.17515,1.25637 l 0.27575,0.559823 0.0262,2.9019 0.0262,2.90191 h -0.63361 -0.63359 l -0.0276,-2.6035 c -0.0274,-2.58149 -0.0294,-2.60708 -0.23929,-3.02684 -0.47893,-0.957873 -1.84989,-1.093383 -2.67852,-0.26476 -0.57061,0.57061 -0.62348,0.87441 -0.62348,3.58213 v 2.31297 h -0.67733 -0.67734 z m 20.48934,0 v -6.477002 h 0.67733 0.67733 v 6.477002 6.477003 h -0.67733 -0.67733 z m 19.05,3.386663 v -3.090333 h -0.59267 -0.59267 v -0.59267 -0.59266 h 0.59267 0.59267 v -1.35467 -1.354672 h 0.67733 0.67733 v 1.354672 1.35467 h 0.67734 0.67733 v 0.59266 0.59267 h -0.67733 -0.67734 v 3.090333 3.09034 h -0.67733 -0.67733 z M -8.0081182,101.4535 c 10e-4,-0.034 0.258207,-0.37472 0.5714999,-0.75723 0.591304,-0.721933 2.8236141,-2.698933 4.040957,-3.578793 1.581908,-1.143342 2.99045099,-1.653332 5.0376665,-1.823962 0.694219,-0.0579 2.527266,-0.39987 3.132667,-0.58449 1.078624,-0.32894 2.2601539,-0.3731 3.7676669,-0.14084 0.2794,0.043 1.091293,0.0815 1.8042069,0.0854 1.04747,0.006 1.471046,0.0466 2.207315,0.21281 2.16531,0.48879 4.745476,1.66504 6.538793,2.980912 0.94431,0.6929 2.822785,2.645543 2.681234,2.787093 -0.08115,0.0812 -0.506936,-0.1354 -0.983378,-0.50012 -1.997012,-1.528743 -4.56497,-2.801183 -7.181022,-3.558255 -3.7377079,-1.08167 -4.6366049,-1.28412 -5.3404159,-1.20274 -0.268803,0.0311 -1.460283,0.0865 -2.6477329,0.12306 -2.588502,0.0798 -2.642791,0.094 -5.01258801,1.31028 -0.8519945,0.437272 -2.28076949,1.104652 -3.17505849,1.483062 -0.8942879,0.3784 -1.9039379,0.8532 -2.2436659,1.05511 -0.339729,0.20191 -0.898208,0.53025 -1.2410651,0.729643 -0.342856,0.19939 -0.923881,0.60514 -1.291166,0.90166 -0.367285,0.29653 -0.6669469,0.51135 -0.6659139,0.47739 z m -4.7855348,-1.16243 c 1.055809,-1.877733 2.773942,-3.921125 5.2792117,-6.278615 1.8259881,-1.71828 2.2778041,-2.00795 4.137432,-2.65259 1.814482,-0.62899 1.909644,-0.66569 3.05959599,-1.17991 1.0938435,-0.48913 2.03612351,-0.79345 3.01775251,-0.97464 6.6730979,-1.23173 14.8938488,0.90557 20.8838318,5.42953 2.151972,1.62528 4.018244,3.492222 4.494638,4.496232 0.139186,0.29334 0.234585,0.55183 0.211998,0.57442 -0.02259,0.0226 -0.425569,-0.39229 -0.895515,-0.92195 -1.307126,-1.47321 -3.288695,-3.208062 -4.882953,-4.275002 -3.388345,-2.26762 -7.331968,-3.72969 -11.006667,-4.08064 -3.0241869,-0.28883 -3.0809509,-0.29072 -4.2756669,-0.14164 -0.62865,0.0784 -1.3144499,0.1422 -1.5239999,0.1417 -0.35696,-8.5e-4 -0.866993,0.073 -2.624666,0.38008 -0.395817,0.0691 -1.119717,0.18505 -1.608667,0.25755 -2.7695425,0.41071 -3.3145335,0.57927 -4.7871445,1.4806 -0.7029519,0.43026 -1.4850889,0.82172 -2.522107,1.26235 -1.863831,0.79192 -2.8110049,1.57903 -4.3227697,3.592262 -0.529303,0.70488 -1.313821,1.6626 -1.743373,2.12826 -1.138359,1.234073 -1.173042,1.263733 -0.890931,0.762003 z m 47.074659,-2.814893 c -0.884767,-0.962362 -1.954159,-2.113352 -2.376428,-2.557762 -0.422269,-0.44441 -1.069354,-1.18901 -1.437966,-1.65468 -0.368612,-0.46567 -1.277169,-1.46587 -2.019016,-2.22267 -0.741846,-0.7568 -1.327179,-1.39763 -1.300739,-1.42407 0.211905,-0.2119 3.628922,2.37592 5.429129,4.11166 1.259546,1.21444 1.76431,1.89131 2.426279,3.25354 0.640457,1.317952 1.033401,2.252372 0.944976,2.247132 -0.03166,-0.002 -0.781468,-0.79079 -1.666235,-1.75315 z"
       id="path41" />
  </g>
</svg>
